<svg width="1285" height="1392" viewBox="0 0 1285 1392" fill="none" xmlns="http://www.w3.org/2000/svg">
<path d="M122.456 658.24L113.456 669.24L122.456 678.24L131.456 669.24L122.456 658.24Z" fill="white"/>
<path d="M304.456 474.24L295.456 485.24L304.456 494.24L313.456 485.24L304.456 474.24Z" fill="white"/>
<path d="M987.456 1139.24L978.456 1150.24L987.456 1159.24L996.456 1150.24L987.456 1139.24Z" fill="white"/>
<path d="M736.397 1371.54L727.397 1382.54L736.397 1391.54L745.397 1382.54L736.397 1371.54Z" fill="white"/>
<path d="M1263.46 1011.24L1251.46 1026.64L1263.46 1039.24L1275.46 1026.64L1263.46 1011.24Z" fill="white"/>
<path d="M1013.96 111.24L1007.46 118.94L1013.96 125.24L1020.46 118.94L1013.96 111.24Z" fill="white"/>
<path d="M590.956 336.24L584.456 343.94L590.956 350.24L597.456 343.94L590.956 336.24Z" fill="white"/>
<path d="M978.456 465.24L970.456 475.14L978.456 483.24L986.456 475.14L978.456 465.24Z" fill="white"/>
<path d="M1217.46 83.24L1205.46 98.64L1217.46 111.24L1229.46 98.64L1217.46 83.24Z" fill="white"/>
<path d="M271.456 1091.24L265.456 1098.39L271.456 1104.24L277.456 1098.39L271.456 1091.24Z" fill="white"/>
<path d="M12.4556 450.24L6.45557 457.39L12.4556 463.24L18.4556 457.39L12.4556 450.24Z" fill="white"/>
<path d="M1279.96 573.24L1275.46 579.29L1279.96 584.24L1284.46 579.29L1279.96 573.24Z" fill="white"/>
<path d="M27.2333 1259.54L28.5926 1252.12L22.3671 1249.67L20.5212 1256.1L27.2333 1259.54Z" fill="white"/>
<path d="M920.956 255.24L916.456 261.29L920.956 266.24L925.456 261.29L920.956 255.24Z" fill="white"/>
</svg>
