<svg width="665" height="665" viewBox="0 0 665 665" fill="none" xmlns="http://www.w3.org/2000/svg">
<path d="M653.456 333.24C653.456 509.971 510.187 653.24 333.456 653.24C156.724 653.24 13.4556 509.971 13.4556 333.24C13.4556 156.509 156.724 13.2402 333.456 13.2402C510.187 13.2402 653.456 156.509 653.456 333.24Z" fill="url(#paint0_linear)"/>
<circle cx="328.456" cy="506.24" r="85" fill="black"/>
<path d="M653.456 333.24C653.456 509.971 510.187 653.24 333.456 653.24C156.724 653.24 13.4556 509.971 13.4556 333.24C13.4556 156.509 156.724 13.2402 333.456 13.2402C510.187 13.2402 653.456 156.509 653.456 333.24Z" fill="url(#paint1_linear)"/>
<path fill-rule="evenodd" clip-rule="evenodd" d="M654.456 333.24C654.456 510.524 510.739 654.24 333.456 654.24C156.172 654.24 12.4556 510.524 12.4556 333.24C12.4556 155.957 156.172 12.2402 333.456 12.2402C510.739 12.2402 654.456 155.957 654.456 333.24ZM333.456 653.24C510.187 653.24 653.456 509.971 653.456 333.24C653.456 156.509 510.187 13.2402 333.456 13.2402C156.724 13.2402 13.4556 156.509 13.4556 333.24C13.4556 509.971 156.724 653.24 333.456 653.24Z" fill="#FDFDFD"/>
<g filter="url(#filter0_dd)">
<path d="M144.456 193.345C202.247 192.598 546.456 192.24 546.456 192.24C197.068 236.004 172.054 401.566 172.054 401.566L472.9 266.716L338.159 451.24L144.456 193.345Z" stroke="#C2F4FF" stroke-opacity="0.4" stroke-width="20" stroke-linecap="round"/>
</g>
<path d="M270.934 555.076L274.037 544.287L269.148 536.5L258.054 534.718L256.456 524.304L265.951 519.05L268.114 510.138L261.532 501.225L267.832 492.5L278.456 495.784L286.071 490.905L287.951 479.835L298.199 478.24L303.652 487.903L312.584 489.873L321.609 483.306L330.165 489.592L326.968 500.1L331.951 507.98L342.763 509.481L344.456 520.082L334.772 525.336L332.797 534.436L339.379 543.161L333.174 551.605L322.55 548.603L314.652 553.575L313.148 564.552L302.712 566.24L297.447 556.483L288.327 554.419L279.208 560.611L270.934 555.076Z" fill="#272727"/>
<path d="M327.956 110.74L323.456 66.7402H332.206H340.956L336.956 110.74H332.456H327.956Z" fill="url(#paint2_linear)"/>
<path d="M332.206 66.7402H323.456L327.956 110.74H332.456M332.206 66.7402H340.956L336.956 110.74H332.456M332.206 66.7402L332.456 110.74" stroke="url(#paint3_linear)"/>
<path d="M520.723 216.298L556.461 190.24L560.87 197.798L565.279 205.356L525.258 224.072L522.99 220.185L520.723 216.298Z" fill="url(#paint4_linear)"/>
<path d="M560.87 197.798L556.461 190.24L520.723 216.298L522.99 220.185M560.87 197.798L565.279 205.356L525.258 224.072L522.99 220.185M560.87 197.798L522.99 220.185" stroke="url(#paint5_linear)"/>
<path d="M525.684 434.98L564.756 455.707L559.891 462.979L555.025 470.252L520.679 442.46L523.182 438.72L525.684 434.98Z" fill="url(#paint6_linear)"/>
<path d="M559.891 462.979L564.756 455.707L525.684 434.98L523.182 438.72M559.891 462.979L555.025 470.252L520.679 442.46L523.182 438.72M559.891 462.979L523.182 438.72" stroke="url(#paint7_linear)"/>
<path d="M445.592 518.562L472.148 553.932L464.653 558.446L457.157 562.961L437.882 523.206L441.737 520.884L445.592 518.562Z" fill="url(#paint8_linear)"/>
<path d="M464.653 558.446L472.148 553.932L445.592 518.562L441.737 520.884M464.653 558.446L457.157 562.961L437.882 523.206L441.737 520.884M464.653 558.446L441.737 520.884" stroke="url(#paint9_linear)"/>
<path d="M224.604 520.702L206.641 561.119L199.048 556.77L191.455 552.422L216.794 516.229L220.699 518.465L224.604 520.702Z" fill="url(#paint10_linear)"/>
<path d="M199.048 556.77L206.641 561.119L224.604 520.702L220.699 518.465M199.048 556.77L191.455 552.422L216.794 516.229L220.699 518.465M199.048 556.77L220.699 518.465" stroke="url(#paint11_linear)"/>
<path d="M146.802 442.451L112.622 470.521L107.785 463.23L102.949 455.938L141.828 434.951L144.315 438.701L146.802 442.451Z" fill="url(#paint12_linear)"/>
<path d="M107.785 463.23L112.622 470.521L146.802 442.451L144.315 438.701M107.785 463.23L102.949 455.938L141.828 434.951L144.315 438.701M107.785 463.23L144.315 438.701" stroke="url(#paint13_linear)"/>
<path d="M140.371 225.731L101.456 204.712L106.376 197.476L111.296 190.24L145.432 218.289L142.902 222.01L140.371 225.731Z" fill="url(#paint14_linear)"/>
<path d="M106.376 197.476L101.456 204.712L140.371 225.731L142.902 222.01M106.376 197.476L111.296 190.24L145.432 218.289L142.902 222.01M106.376 197.476L142.902 222.01" stroke="url(#paint15_linear)"/>
<path d="M251.456 486.24C251.856 473.84 265.956 454.407 272.956 446.24L292.956 479.74L285.956 486.24H251.456Z" fill="#2C2C2C"/>
<path d="M372.922 498.807L363.008 492.1L326.33 542.325L336.09 550.584L338.979 542.114L344.905 544.71L346.64 536.615L352.196 537.057L352.416 530.958L359.47 530.02L358.141 523.377L365.649 520.902L362.908 515.073L369.614 511.991L366.098 506.203L372.922 498.807Z" fill="#555555"/>
<path d="M366.456 528.74L359.956 520.74L357.956 511.74L390.956 513.74V519.24L387.956 522.74L386.456 532.74L373.456 535.24L370.956 527.74L366.456 528.74Z" fill="#4D4D4D"/>
<path d="M390.956 461.24L381.456 455.24L361.956 472.74L381.456 490.24H409.456L407.956 481.24L400.956 472.74L395.456 475.24L388.956 468.24L390.956 461.24Z" fill="#4D4D4D"/>
<path d="M654 333C654 510.283 510.283 654 333 654C155.717 654 12 510.283 12 333C12 155.717 155.717 12 333 12C510.283 12 654 155.717 654 333Z" stroke="#CCF6FF" stroke-width="7" stroke-dasharray="3 15"/>
<path d="M350.956 560.74C336.956 563.54 326.456 574.24 322.956 579.24L314.956 580.74L311.956 578.24L306.456 573.24H308.456L310.956 572.24L314.956 575.74L316.456 573.74L313.956 571.74L316.956 569.24L318.956 571.74L320.456 569.24L319.456 567.24V562.74L322.956 566.74L323.956 564.74L322.956 563.74L323.456 558.74L327.456 563.24L329.456 561.24L328.456 558.74L329.456 555.24L332.456 559.74L334.956 558.74L333.956 556.24L335.456 552.24L337.456 556.74L338.956 556.24V552.24L341.956 550.24L342.456 554.24H344.456V551.74L348.456 547.74V553.24H351.456V550.24L354.956 547.74V552.74H357.956V549.74L360.956 547.24L361.456 552.24H363.956L364.456 549.74L367.456 547.24V551.74H368.456L369.956 548.24L374.456 549.74C371.289 553.907 367.556 561.24 365.956 561.24C364.356 561.24 356.289 560.74 354.956 560.74V568.74L350.956 570.74V560.74Z" fill="#3A3A3A"/>
<ellipse cx="325.456" cy="458.24" rx="36" ry="31" fill="#727272"/>
<path d="M414.456 512.24L398.601 514.501L363.456 561.74L347.456 590.24C391.645 583.91 410.534 535.603 414.456 512.24Z" fill="#222121"/>
<path d="M282.249 581.188L299.687 577.733L361.456 565.74L371.456 581.188C335.956 601.24 288.4 587.881 282.249 581.188Z" fill="#292929"/>
<path d="M269.538 465.643L378.956 436.24C317.456 394.74 268.811 441.412 254.456 460.256L269.538 465.643Z" fill="#494949"/>
<circle cx="332.956" cy="48.7402" r="26.5" fill="#181818" fill-opacity="0.7" stroke="#CCF6FF" stroke-width="2"/>
<path d="M344.456 458.74L346.456 470.24L358.456 476.74L367.956 464.74L356.956 453.74L344.456 458.74Z" fill="#4D4D4D"/>
<circle cx="475.456" cy="309.24" r="99" stroke="white" stroke-width="2"/>
<ellipse cx="474.956" cy="309.74" rx="107.5" ry="106.5" stroke="url(#paint16_linear)" stroke-width="15" stroke-dasharray="2 20"/>
<circle cx="475.456" cy="309.24" r="114" stroke="url(#paint17_linear)" stroke-width="2"/>
<circle cx="190.456" cy="309.24" r="114" stroke="url(#paint18_linear)" stroke-width="2"/>
<path d="M577.956 246.74C544.356 199.54 495.956 188.407 475.956 188.74V182.24C531.956 183.84 570.956 224.24 583.456 244.24L577.956 246.74Z" fill="url(#paint19_linear)"/>
<path d="M370.956 372.24C404.556 419.44 452.956 430.574 472.956 430.24V436.74C416.956 435.14 377.956 394.74 365.456 374.74L370.956 372.24Z" fill="url(#paint20_linear)"/>
<path d="M273 440L408 544" stroke="url(#paint21_linear)" stroke-width="10"/>
<path d="M388.956 445.24L268.456 567.24" stroke="#373838" stroke-width="10"/>
<path d="M578.456 372.24C544.856 419.44 496.456 430.574 476.456 430.24V436.74C532.456 435.14 571.456 394.74 583.956 374.74L578.456 372.24Z" fill="url(#paint22_linear)"/>
<path d="M89.931 239.971C127.847 196.162 177.083 189.658 196.962 191.883L197.577 185.412C141.677 181.706 99.0287 218.234 84.6922 236.962L89.931 239.971Z" fill="url(#paint23_linear)"/>
<path d="M85.9556 372.24C119.556 419.44 167.956 430.574 187.956 430.24V436.74C131.956 435.14 92.9556 394.74 80.4556 374.74L85.9556 372.24Z" fill="url(#paint24_linear)"/>
<path d="M293.456 372.24C259.856 419.44 211.456 430.574 191.456 430.24V436.74C247.456 435.14 286.456 394.74 298.956 374.74L293.456 372.24Z" fill="url(#paint25_linear)"/>
<path d="M181.988 240H179.152V226.301L174.969 227.73V225.328L181.625 222.879H181.988V240ZM199.391 240H187.918V238.043L193.602 231.844C194.422 230.93 195.004 230.168 195.348 229.559C195.699 228.941 195.875 228.324 195.875 227.707C195.875 226.895 195.645 226.238 195.184 225.738C194.73 225.238 194.117 224.988 193.344 224.988C192.422 224.988 191.707 225.27 191.199 225.832C190.691 226.395 190.438 227.164 190.438 228.141H187.59C187.59 227.102 187.824 226.168 188.293 225.34C188.77 224.504 189.445 223.855 190.32 223.395C191.203 222.934 192.219 222.703 193.367 222.703C195.023 222.703 196.328 223.121 197.281 223.957C198.242 224.785 198.723 225.934 198.723 227.402C198.723 228.254 198.48 229.148 197.996 230.086C197.52 231.016 196.734 232.074 195.641 233.262L191.469 237.727H199.391V240Z" fill="white" fill-opacity="0.59"/>
<path d="M273.75 280H262.277V278.043L267.961 271.844C268.781 270.93 269.363 270.168 269.707 269.559C270.059 268.941 270.234 268.324 270.234 267.707C270.234 266.895 270.004 266.238 269.543 265.738C269.09 265.238 268.477 264.988 267.703 264.988C266.781 264.988 266.066 265.27 265.559 265.832C265.051 266.395 264.797 267.164 264.797 268.141H261.949C261.949 267.102 262.184 266.168 262.652 265.34C263.129 264.504 263.805 263.855 264.68 263.395C265.562 262.934 266.578 262.703 267.727 262.703C269.383 262.703 270.688 263.121 271.641 263.957C272.602 264.785 273.082 265.934 273.082 267.402C273.082 268.254 272.84 269.148 272.355 270.086C271.879 271.016 271.094 272.074 270 273.262L265.828 277.727H273.75V280Z" fill="white" fill-opacity="0.5"/>
<path d="M267.91 350.918H270.031V353.203H267.91V357H265.062V353.203H257.691L257.609 351.469L264.969 339.938H267.91V350.918ZM260.598 350.918H265.062V343.793L264.852 344.168L260.598 350.918Z" fill="white" fill-opacity="0.5"/>
<path d="M193.137 383.855V386.211H192.785C191.191 386.234 189.918 386.672 188.965 387.523C188.012 388.375 187.445 389.582 187.266 391.145C188.18 390.184 189.348 389.703 190.77 389.703C192.277 389.703 193.465 390.234 194.332 391.297C195.207 392.359 195.645 393.73 195.645 395.41C195.645 397.145 195.133 398.551 194.109 399.629C193.094 400.699 191.758 401.234 190.102 401.234C188.398 401.234 187.016 400.605 185.953 399.348C184.898 398.09 184.371 396.441 184.371 394.402V393.43C184.371 390.438 185.098 388.094 186.551 386.398C188.012 384.703 190.109 383.855 192.844 383.855H193.137ZM190.078 392C189.453 392 188.879 392.176 188.355 392.527C187.84 392.879 187.461 393.348 187.219 393.934V394.801C187.219 396.066 187.484 397.074 188.016 397.824C188.547 398.566 189.234 398.938 190.078 398.938C190.922 398.938 191.59 398.621 192.082 397.988C192.574 397.355 192.82 396.523 192.82 395.492C192.82 394.461 192.57 393.621 192.07 392.973C191.57 392.324 190.906 392 190.078 392Z" fill="white" fill-opacity="0.5"/>
<path d="M123.023 343.438C123.023 344.273 122.809 345.02 122.379 345.676C121.949 346.324 121.363 346.836 120.621 347.211C121.512 347.625 122.195 348.191 122.672 348.91C123.156 349.629 123.398 350.441 123.398 351.348C123.398 352.848 122.891 354.039 121.875 354.922C120.859 355.797 119.508 356.234 117.82 356.234C116.125 356.234 114.766 355.793 113.742 354.91C112.727 354.027 112.219 352.84 112.219 351.348C112.219 350.434 112.461 349.613 112.945 348.887C113.43 348.16 114.109 347.602 114.984 347.211C114.25 346.836 113.668 346.324 113.238 345.676C112.816 345.02 112.605 344.273 112.605 343.438C112.605 341.984 113.074 340.832 114.012 339.98C114.949 339.129 116.215 338.703 117.809 338.703C119.41 338.703 120.68 339.129 121.617 339.98C122.555 340.832 123.023 341.984 123.023 343.438ZM120.551 351.207C120.551 350.363 120.297 349.684 119.789 349.168C119.289 348.645 118.625 348.383 117.797 348.383C116.969 348.383 116.305 348.641 115.805 349.156C115.312 349.672 115.066 350.355 115.066 351.207C115.066 352.043 115.309 352.711 115.793 353.211C116.285 353.711 116.961 353.961 117.82 353.961C118.68 353.961 119.348 353.719 119.824 353.234C120.309 352.75 120.551 352.074 120.551 351.207ZM120.188 343.543C120.188 342.801 119.973 342.191 119.543 341.715C119.113 341.23 118.535 340.988 117.809 340.988C117.082 340.988 116.508 341.219 116.086 341.68C115.664 342.133 115.453 342.754 115.453 343.543C115.453 344.324 115.664 344.945 116.086 345.406C116.516 345.867 117.094 346.098 117.82 346.098C118.547 346.098 119.121 345.867 119.543 345.406C119.973 344.945 120.188 344.324 120.188 343.543Z" fill="white" fill-opacity="0.5"/>
<g filter="url(#filter1_d)">
<circle cx="329.5" cy="506.5" r="86.5" stroke="#B1B6B8" stroke-width="2"/>
</g>
<path d="M116.988 280H114.152V266.301L109.969 267.73V265.328L116.625 262.879H116.988V280ZM134.039 272.816C134.039 275.27 133.578 277.121 132.656 278.371C131.742 279.613 130.348 280.234 128.473 280.234C126.629 280.234 125.238 279.629 124.301 278.418C123.371 277.199 122.895 275.398 122.871 273.016V270.062C122.871 267.609 123.328 265.77 124.242 264.543C125.164 263.316 126.566 262.703 128.449 262.703C130.316 262.703 131.707 263.301 132.621 264.496C133.543 265.691 134.016 267.48 134.039 269.863V272.816ZM131.191 269.629C131.191 268.027 130.973 266.855 130.535 266.113C130.098 265.363 129.402 264.988 128.449 264.988C127.52 264.988 126.836 265.344 126.398 266.055C125.961 266.758 125.73 267.859 125.707 269.359V273.227C125.707 274.82 125.93 276.008 126.375 276.789C126.82 277.57 127.52 277.961 128.473 277.961C129.387 277.961 130.062 277.602 130.5 276.883C130.938 276.156 131.168 275.023 131.191 273.484V269.629Z" fill="white" fill-opacity="0.5"/>
<path d="M360.456 487.24L494.456 491.74V512.24L360.456 515.74V487.24Z" fill="url(#paint26_linear)" stroke="#B8BDBE"/>
<circle cx="190.456" cy="309.24" r="99" stroke="url(#paint27_linear)" stroke-width="2"/>
<ellipse cx="189.956" cy="309.74" rx="107.5" ry="106.5" stroke="url(#paint28_linear)" stroke-width="15" stroke-dasharray="2 20"/>
<circle cx="505.456" cy="501.24" r="16.5" fill="url(#paint29_linear)" stroke="#BCBCBC"/>
<g filter="url(#filter2_i)">
<circle cx="505.456" cy="501.24" r="13" fill="#CCF6FF"/>
</g>
<circle cx="505.456" cy="501.24" r="12.75" stroke="#DBF8FF" stroke-width="0.5"/>
<path d="M304.456 487.24L170.456 491.74V512.24L304.456 515.74V487.24Z" fill="url(#paint30_linear)" stroke="#BABCBE"/>
<circle r="16.5" transform="matrix(-1 0 0 1 159.456 501.24)" fill="url(#paint31_linear)" stroke="#BCBCBC"/>
<g filter="url(#filter3_i)">
<circle r="13" transform="matrix(-1 0 0 1 159.456 501.24)" fill="#CCF6FF"/>
</g>
<circle r="12.75" transform="matrix(-1 0 0 1 159.456 501.24)" stroke="#DBF8FF" stroke-width="0.5"/>
<path d="M199.156 587.45L201.674 588.755L195.381 600.924L199.753 601.578L198.649 603.712L191.614 602.826L191.292 602.659L199.156 587.45Z" fill="#CCF6FF"/>
<path d="M139.982 546.983L142.104 548.863L133.029 559.126L137.108 560.829L135.516 562.629L128.912 560.049L128.64 559.808L139.982 546.983Z" fill="#CCF6FF"/>
<path d="M123.003 535.029C122.632 534.648 122.455 534.248 122.472 533.828C122.482 533.414 122.65 533.048 122.974 532.732C123.293 532.421 123.659 532.265 124.074 532.265C124.482 532.27 124.872 532.463 125.242 532.844C125.597 533.207 125.774 533.597 125.774 534.011C125.774 534.426 125.612 534.791 125.288 535.108C124.964 535.424 124.594 535.583 124.18 535.583C123.761 535.588 123.368 535.404 123.003 535.029Z" fill="#CCF6FF"/>
<path d="M108.053 527.131L100.877 531.96L94.9834 524.942L96.8663 523.357L101.237 528.562L104.659 526.296C103.805 525.983 103.059 525.447 102.421 524.687C101.376 523.443 100.962 522.142 101.179 520.785C101.391 519.422 102.17 518.175 103.515 517.043C104.842 515.926 106.222 515.419 107.654 515.521C109.08 515.627 110.353 516.348 111.474 517.682C112.478 518.879 112.975 520.156 112.962 521.514C112.939 522.871 112.399 524.051 111.343 525.052L109.572 522.943C110.135 522.326 110.431 521.689 110.46 521.031C110.484 520.379 110.244 519.753 109.742 519.155C109.179 518.485 108.503 518.165 107.713 518.197C106.918 518.222 106.108 518.582 105.284 519.276C104.489 519.945 104.034 520.68 103.921 521.48C103.801 522.285 104.045 523.05 104.653 523.774C104.985 524.169 105.32 524.458 105.659 524.643C105.991 524.833 106.446 524.961 107.022 525.027L108.053 527.131Z" fill="#CCF6FF"/>
<path d="M69.3021 452.866L74.3099 463.188L72.5498 464.044L64.4936 461.641C63.3135 461.302 62.3744 461.112 61.6763 461.069C60.9678 461.022 60.336 461.134 59.7809 461.404C59.0502 461.759 58.5606 462.253 58.3121 462.887C58.0602 463.513 58.103 464.174 58.4406 464.87C58.843 465.699 59.408 466.219 60.1356 466.43C60.8631 466.641 61.666 466.533 62.5443 466.106L63.7873 468.668C62.8528 469.123 61.9108 469.32 60.9615 469.26C60.0016 469.197 59.1235 468.873 58.327 468.287C57.5271 467.694 56.8765 466.881 56.3752 465.848C55.6523 464.358 55.4587 463.001 55.7945 461.778C56.1198 460.551 56.943 459.617 58.2639 458.975C59.0298 458.603 59.94 458.429 60.9945 458.455C62.0387 458.478 63.3335 458.721 64.8789 459.186L70.7153 460.987L67.2575 453.86L69.3021 452.866Z" fill="#CCF6FF"/>
<path d="M46.9279 384.712L49.263 395.945L47.3471 396.344L40.1214 392.044C39.0596 391.427 38.1954 391.012 37.5288 390.8C36.8531 390.582 36.2131 390.536 35.6089 390.661C34.8134 390.827 34.2179 391.187 33.8222 391.74C33.4249 392.286 33.305 392.937 33.4624 393.694C33.6501 394.597 34.0709 395.239 34.725 395.622C35.379 396.004 36.184 396.096 37.1401 395.897L37.7197 398.685C36.7024 398.897 35.7408 398.858 34.8346 398.568C33.9193 398.271 33.1469 397.742 32.5176 396.979C31.8866 396.209 31.4543 395.262 31.2205 394.137C30.8834 392.516 31.0271 391.153 31.6514 390.049C32.2666 388.94 33.2931 388.235 34.731 387.936C35.5646 387.762 36.4897 387.817 37.5061 388.1C38.5132 388.377 39.7094 388.929 41.0945 389.758L46.3147 392.932L44.7023 385.176L46.9279 384.712Z" fill="#CCF6FF"/>
<path d="M41.2221 368.649C41.1525 368.122 41.2498 367.695 41.5139 367.369C41.7703 367.043 42.1232 366.851 42.5724 366.791C43.0138 366.733 43.4006 366.827 43.7328 367.075C44.0573 367.323 44.2543 367.711 44.3239 368.238C44.3905 368.741 44.2999 369.159 44.0523 369.491C43.8046 369.823 43.4562 370.019 43.007 370.079C42.5578 370.138 42.1671 370.044 41.8349 369.797C41.495 369.55 41.2907 369.167 41.2221 368.649Z" fill="#CCF6FF"/>
<path d="M33.9569 353.369L25.3162 352.943L24.7858 343.795L27.2426 343.652L27.636 350.437L31.7344 350.669C31.2364 349.907 30.9586 349.031 30.9012 348.041C30.8072 346.419 31.2528 345.129 32.2381 344.172C33.223 343.207 34.5928 342.673 36.3477 342.571C38.0792 342.471 39.4886 342.89 40.576 343.828C41.6556 344.767 42.2458 346.106 42.3466 347.845C42.437 349.405 42.0714 350.726 41.2498 351.806C40.4199 352.88 39.2821 353.501 37.8364 353.672L37.677 350.922C38.4974 350.765 39.1159 350.432 39.5324 349.922C39.9411 349.413 40.1229 348.769 40.0777 347.989C40.027 347.115 39.6757 346.455 39.0237 346.008C38.3713 345.553 37.5069 345.356 36.4306 345.419C35.3933 345.479 34.59 345.796 34.0206 346.369C33.4435 346.942 33.1822 347.701 33.2369 348.645C33.2668 349.159 33.3623 349.592 33.5235 349.943C33.6769 350.294 33.9647 350.668 34.3868 351.066L33.9569 353.369Z" fill="#CCF6FF"/>
<path d="M36.0732 276.84L36.3987 275.136C36.5552 274.275 36.4624 273.554 36.1204 272.971C35.7798 272.381 35.1951 272.006 34.3664 271.848C33.5684 271.695 32.9104 271.788 32.3924 272.126C31.8682 272.455 31.524 273.05 31.3598 273.909C31.2161 274.661 31.3168 275.321 31.6618 275.888C31.9991 276.454 32.5169 276.803 33.2152 276.937L32.6808 279.734C31.8214 279.569 31.082 279.193 30.4626 278.605C29.8446 278.01 29.4176 277.268 29.1817 276.38C28.9396 275.482 28.9153 274.527 29.1088 273.514C29.4284 271.841 30.1011 270.61 31.1269 269.82C32.1466 269.021 33.4045 268.764 34.9008 269.051C35.6527 269.195 36.3163 269.572 36.8915 270.183C37.4605 270.786 37.8413 271.499 38.0338 272.323C38.5243 271.463 39.1526 270.859 39.9187 270.512C40.6863 270.158 41.5382 270.071 42.4743 270.25C43.9783 270.538 45.0763 271.285 45.7685 272.491C46.4621 273.69 46.6484 275.13 46.3274 276.81C46.0195 278.422 45.3376 279.659 44.2818 280.523C43.2259 281.387 41.9844 281.682 40.5572 281.409L41.0916 278.612C41.8282 278.753 42.4736 278.622 43.0278 278.219C43.5835 277.808 43.9413 277.185 44.1011 276.348C44.2667 275.481 44.167 274.754 43.8019 274.167C43.4368 273.58 42.8169 273.203 41.9422 273.036C41.0597 272.867 40.3308 272.998 39.7554 273.428C39.18 273.859 38.794 274.589 38.5976 275.617L38.2831 277.263L36.0732 276.84Z" fill="#CCF6FF"/>
<path d="M57.6838 205.892L58.4155 204.32C58.7775 203.523 58.8638 202.8 58.6745 202.152C58.4884 201.496 58.013 200.99 57.2483 200.633C56.5119 200.29 55.8513 200.219 55.2664 200.421C54.6777 200.612 54.1988 201.104 53.8297 201.897C53.5067 202.591 53.4432 203.256 53.6392 203.89C53.8281 204.521 54.2447 204.987 54.889 205.287L53.6877 207.869C52.8947 207.499 52.2697 206.954 51.8127 206.232C51.359 205.503 51.1263 204.679 51.1145 203.76C51.099 202.831 51.3087 201.898 51.7438 200.963C52.4623 199.419 53.4153 198.39 54.6028 197.874C55.7866 197.349 57.0689 197.408 58.4496 198.052C59.1435 198.375 59.6947 198.904 60.103 199.637C60.5076 200.36 60.7026 201.145 60.6878 201.991C61.3737 201.277 62.1303 200.845 62.9577 200.697C63.7885 200.541 64.6357 200.664 65.4996 201.067C66.8874 201.714 67.7695 202.707 68.146 204.046C68.5257 205.379 68.3547 206.82 67.6329 208.371C66.9408 209.859 65.9774 210.892 64.7427 211.472C63.508 212.051 62.2322 212.034 60.9152 211.42L62.1165 208.838C62.7962 209.155 63.454 209.186 64.0898 208.931C64.7288 208.668 65.228 208.151 65.5872 207.379C65.9597 206.579 66.0406 205.849 65.8299 205.191C65.6193 204.532 65.1104 204.015 64.3032 203.638C63.4889 203.259 62.7502 203.207 62.0871 203.484C61.424 203.761 60.8716 204.374 60.43 205.324L59.723 206.843L57.6838 205.892Z" fill="#CCF6FF"/>
<path d="M75.0678 186.341C75.3267 185.877 75.6596 185.593 76.0664 185.49C76.4664 185.382 76.8641 185.439 77.2596 185.66C77.6483 185.877 77.9017 186.185 78.0199 186.582C78.1313 186.976 78.0576 187.404 77.7987 187.868C77.5512 188.312 77.229 188.592 76.832 188.711C76.435 188.829 76.0388 188.777 75.6433 188.556C75.2479 188.335 74.991 188.026 74.8728 187.628C74.7477 187.227 74.8127 186.798 75.0678 186.341Z" fill="#CCF6FF"/>
<path d="M78.3754 169.744L71.7068 164.232L76.749 156.579L78.8027 157.935L75.0629 163.611L78.2082 166.249C78.2642 165.341 78.5652 164.472 79.1111 163.644C80.0052 162.287 81.133 161.52 82.4944 161.342C83.8602 161.158 85.2765 161.55 86.7434 162.518C88.1908 163.474 89.0696 164.654 89.38 166.057C89.6838 167.456 89.3565 168.883 88.3979 170.337C87.5382 171.642 86.4562 172.482 85.1521 172.856C83.8458 173.22 82.5626 173.038 81.3027 172.309L82.8179 170.009C83.5692 170.374 84.2639 170.477 84.902 170.318C85.5336 170.155 86.0644 169.747 86.4942 169.094C86.9757 168.364 87.0889 167.624 86.8338 166.875C86.583 166.12 86.0078 165.445 85.1081 164.851C84.241 164.279 83.4082 164.052 82.6095 164.17C81.8044 164.285 81.1418 164.737 80.6217 165.526C80.338 165.956 80.1559 166.361 80.0755 166.738C79.9886 167.111 79.9954 167.584 80.0957 168.156L78.3754 169.744Z" fill="#CCF6FF"/>
<path d="M132.999 108.159L134.564 106.727L136.105 108.414L134.54 109.847L137.101 112.65L135.001 114.573L132.44 111.769L127.003 116.747L125.773 115.522L123.423 102.039L125.593 100.053L132.999 108.159ZM127.605 113.097L130.899 110.082L126.093 104.822L126.19 105.241L127.605 113.097Z" fill="#CCF6FF"/>
<path d="M192.857 66.0417L194.724 65.0355L195.807 67.048L193.94 68.0543L195.738 71.3982L193.231 72.7492L191.433 69.4052L184.944 72.902L184.05 71.4134L185.067 57.7664L187.656 56.3711L192.857 66.0417ZM186.42 69.5107L190.35 67.3926L186.976 61.1175L186.968 61.5479L186.42 69.5107Z" fill="#CCF6FF"/>
<path d="M211.112 60.4806C211.597 60.2637 212.034 60.2354 212.422 60.3955C212.807 60.5486 213.091 60.832 213.276 61.2458C213.458 61.6524 213.477 62.0503 213.334 62.4394C213.188 62.8214 212.873 63.1209 212.388 63.3378C211.924 63.5451 211.498 63.5775 211.109 63.4347C210.72 63.292 210.433 63.0137 210.249 62.6C210.064 62.1862 210.043 61.7848 210.186 61.3956C210.326 60.9994 210.634 60.6944 211.112 60.4806Z" fill="#CCF6FF"/>
<path d="M223.68 49.162L221.631 40.7563L230.249 37.64L231.084 39.9548L224.692 42.2661L225.636 46.2615C226.224 45.567 226.984 45.051 227.918 44.7136C229.446 44.161 230.809 44.2207 232.006 44.8925C233.211 45.5617 234.112 46.7231 234.709 48.3765C235.297 50.0079 235.296 51.4786 234.706 52.7887C234.113 54.0914 232.997 55.039 231.359 55.6315C229.89 56.1628 228.52 56.1886 227.251 55.7089C225.986 55.2191 225.067 54.3055 224.493 52.9678L227.082 52.0314C227.466 52.7731 227.962 53.2711 228.568 53.5253C229.172 53.7721 229.842 53.7626 230.576 53.497C231.399 53.1994 231.932 52.6744 232.176 51.9218C232.426 51.1665 232.369 50.2818 232.003 49.2677C231.65 48.2903 231.118 47.6104 230.407 47.2278C229.693 46.8379 228.892 46.8037 228.003 47.1252C227.518 47.3005 227.13 47.5154 226.84 47.7699C226.547 48.017 226.27 48.3997 226.009 48.918L223.68 49.162Z" fill="#CCF6FF"/>
<path d="M295.193 31.0222L295.259 22.371L304.377 21.4577L304.622 23.9065L297.859 24.5838L297.798 28.6884C298.538 28.1589 299.402 27.8447 300.389 27.7458C302.006 27.5839 303.313 27.9751 304.31 28.9195C305.315 29.8631 305.905 31.2094 306.08 32.9585C306.252 34.6843 305.893 36.1101 305 37.2359C304.107 38.3539 302.793 38.9997 301.06 39.1734C299.505 39.3291 298.171 39.0191 297.057 38.2434C295.95 37.4592 295.282 36.3484 295.052 34.9111L297.792 34.6366C297.983 35.4497 298.342 36.0537 298.868 36.4485C299.393 36.8356 300.045 36.9902 300.822 36.9124C301.693 36.8252 302.338 36.4465 302.758 35.7763C303.185 35.1053 303.346 34.2335 303.238 33.1607C303.135 32.1268 302.785 31.3374 302.189 30.7925C301.592 30.2399 300.823 30.0107 299.883 30.1049C299.37 30.1563 298.941 30.2699 298.598 30.4456C298.253 30.6136 297.891 30.9168 297.511 31.3553L295.193 31.0222Z" fill="#CCF6FF"/>
<path d="M368.967 30.9321L371.143 22.5593L380.208 23.9047L379.847 26.3391L373.124 25.3412L372.063 29.3065C372.909 28.9741 373.824 28.8807 374.805 29.0264C376.412 29.265 377.584 29.9642 378.321 31.1239C379.065 32.2848 379.308 33.7347 379.051 35.4735C378.797 37.1892 378.099 38.4837 376.959 39.357C375.82 40.2225 374.389 40.5274 372.665 40.2716C371.12 40.0422 369.902 39.4152 369.011 38.3905C368.129 37.3592 367.752 36.1185 367.88 34.6685L370.604 35.0728C370.591 35.9081 370.791 36.5815 371.205 37.0931C371.62 37.597 372.214 37.9063 372.987 38.021C373.852 38.1495 374.571 37.9401 375.141 37.393C375.72 36.847 376.088 36.0408 376.246 34.9743C376.398 33.9464 376.252 33.0954 375.807 32.4212C375.363 31.7392 374.673 31.3289 373.738 31.1901C373.228 31.1144 372.785 31.1197 372.409 31.206C372.034 31.2847 371.609 31.4901 371.133 31.8223L368.967 30.9321Z" fill="#CCF6FF"/>
<path d="M395.345 41.0607C395.863 41.1771 396.23 41.4157 396.446 41.7764C396.663 42.1294 396.722 42.527 396.622 42.9692C396.525 43.4037 396.303 43.7341 395.956 43.9604C395.611 44.1791 395.179 44.2302 394.66 44.1138C394.165 44.0024 393.804 43.7732 393.578 43.4261C393.351 43.0789 393.288 42.6843 393.387 42.2421C393.486 41.8 393.709 41.4658 394.056 41.2395C394.405 41.0055 394.834 40.9459 395.345 41.0607Z" fill="#CCF6FF"/>
<path d="M412.176 39.5137L415.556 31.5505L424.325 34.2121L423.612 36.5674L417.108 34.5933L415.477 38.3601C416.363 38.1556 417.281 38.1975 418.231 38.4856C419.786 38.9576 420.842 39.8213 421.401 41.0767C421.967 42.3343 421.995 43.8043 421.485 45.4867C420.982 47.1465 420.103 48.3247 418.847 49.0213C417.594 49.7103 416.133 49.8018 414.466 49.2958C412.971 48.842 411.858 48.0429 411.127 46.8984C410.406 45.7488 410.215 44.4661 410.554 43.0505L413.189 43.8503C413.054 44.6747 413.153 45.3703 413.488 45.9371C413.824 46.4965 414.367 46.8897 415.114 47.1166C415.951 47.3707 416.692 47.2691 417.337 46.8116C417.989 46.3564 418.472 45.6129 418.784 44.581C419.085 43.5866 419.065 42.7232 418.724 41.9909C418.385 41.2512 417.763 40.744 416.858 40.4694C416.365 40.3197 415.926 40.2599 415.541 40.2901C415.159 40.3128 414.708 40.4536 414.189 40.7124L412.176 39.5137Z" fill="#CCF6FF"/>
<path d="M491.736 64.5223L490.523 66.5416L490.222 66.3603C488.845 65.5585 487.528 65.2769 486.273 65.5154C485.018 65.7539 483.911 66.4966 482.953 67.7434C484.231 67.391 485.479 67.5814 486.697 68.3146C487.989 69.0921 488.733 70.1599 488.929 71.5179C489.131 72.8799 488.8 74.2809 487.935 75.7208C487.042 77.2076 485.88 78.1492 484.448 78.5457C483.027 78.9395 481.606 78.7094 480.187 77.8553C478.728 76.9771 477.867 75.7249 477.605 74.0987C477.349 72.4766 477.745 70.7915 478.795 69.0435L479.296 68.2097C480.837 65.6447 482.666 64.0101 484.784 63.3062C486.909 62.6062 489.142 62.9612 491.485 64.3713L491.736 64.5223ZM484.922 69.927C484.387 69.6047 483.804 69.4593 483.175 69.4908C482.552 69.5263 481.986 69.7327 481.477 70.1101L481.03 70.8535C480.378 71.9385 480.087 72.9394 480.156 73.8563C480.229 74.7665 480.627 75.4391 481.35 75.8742C482.073 76.3093 482.808 76.3825 483.556 76.0939C484.303 75.8052 484.942 75.2188 485.473 74.3348C486.004 73.4507 486.223 72.6019 486.128 71.7882C486.034 70.9744 485.632 70.3541 484.922 69.927Z" fill="#CCF6FF"/>
<path d="M500.796 87.2834C501.229 87.5901 501.476 87.9514 501.537 88.3672C501.602 88.7766 501.503 89.1665 501.242 89.5367C500.985 89.9006 500.654 90.1204 500.246 90.1961C499.844 90.2654 499.425 90.1467 498.992 89.84C498.577 89.5468 498.332 89.1965 498.256 88.7889C498.18 88.3813 498.273 87.9924 498.534 87.6222C498.795 87.2519 499.13 87.0289 499.537 86.9533C499.949 86.8712 500.368 86.9812 500.796 87.2834Z" fill="#CCF6FF"/>
<path d="M516.931 92.3245L523.108 86.2685L530.181 92.095L528.619 93.9961L523.372 89.6746L520.421 92.5269C521.318 92.6786 522.149 93.0698 522.915 93.7006C524.169 94.7338 524.813 95.9373 524.847 97.3112C524.886 98.6901 524.348 100.058 523.232 101.416C522.13 102.756 520.866 103.506 519.44 103.667C518.018 103.822 516.635 103.346 515.29 102.238C514.084 101.245 513.363 100.079 513.128 98.7414C512.903 97.4027 513.219 96.1447 514.076 94.9676L516.202 96.7185C515.76 97.4278 515.585 98.1084 515.676 98.7603C515.772 99.4063 516.122 99.9776 516.725 100.474C517.4 101.031 518.123 101.221 518.894 101.047C519.671 100.877 520.401 100.375 521.086 99.5425C521.746 98.7398 522.059 97.9347 522.025 97.1273C521.995 96.3138 521.616 95.6066 520.886 95.0056C520.488 94.6777 520.106 94.4539 519.739 94.334C519.378 94.2081 518.907 94.165 518.329 94.2045L516.931 92.3245Z" fill="#CCF6FF"/>
<path d="M580.939 148.992L564.439 152.693L562.666 150.287L578.594 146.994L573.361 139.889L575.199 138.532L582.212 148.052L580.939 148.992Z" fill="#CCF6FF"/>
<path d="M617.238 215.235L600.332 214.79L599.201 212.023L615.452 212.725L612.113 204.556L614.228 203.69L618.702 214.635L617.238 215.235Z" fill="#CCF6FF"/>
<path d="M611.49 235.965C611.654 236.47 611.636 236.907 611.436 237.277C611.243 237.644 610.931 237.897 610.5 238.038C610.077 238.176 609.679 238.153 609.308 237.97C608.943 237.785 608.679 237.44 608.515 236.935C608.358 236.452 608.371 236.024 608.554 235.652C608.737 235.281 609.044 235.024 609.474 234.884C609.905 234.744 610.306 234.765 610.678 234.948C611.057 235.128 611.328 235.467 611.49 235.965Z" fill="#CCF6FF"/>
<path d="M621.414 249.665L629.987 248.507L632.174 257.407L629.785 257.995L628.163 251.395L624.091 251.914C624.719 252.572 625.152 253.383 625.389 254.347C625.776 255.925 625.573 257.274 624.779 258.395C623.986 259.524 622.736 260.298 621.029 260.718C619.345 261.133 617.883 260.978 616.643 260.253C615.411 259.527 614.587 258.318 614.171 256.626C613.798 255.109 613.917 253.744 614.528 252.531C615.149 251.324 616.154 250.506 617.545 250.075L618.202 252.749C617.424 253.053 616.877 253.494 616.56 254.071C616.251 254.646 616.189 255.312 616.376 256.071C616.585 256.921 617.05 257.506 617.773 257.827C618.497 258.156 619.383 258.191 620.429 257.933C621.438 257.685 622.171 257.227 622.626 256.56C623.089 255.89 623.208 255.097 622.982 254.179C622.859 253.678 622.686 253.27 622.464 252.955C622.249 252.637 621.898 252.322 621.411 252.007L621.414 249.665Z" fill="#CCF6FF"/>
<path d="M635.949 332.767C635.113 332.763 634.369 332.544 633.715 332.11C633.069 331.677 632.561 331.088 632.19 330.343C631.771 331.232 631.2 331.912 630.479 332.384C629.757 332.865 628.943 333.102 628.037 333.097C626.537 333.088 625.349 332.574 624.472 331.553C623.603 330.533 623.173 329.178 623.183 327.491C623.192 325.796 623.641 324.439 624.53 323.421C625.419 322.41 626.609 321.909 628.101 321.918C629.015 321.923 629.834 322.17 630.558 322.658C631.282 323.147 631.836 323.83 632.222 324.707C632.601 323.975 633.116 323.396 633.767 322.97C634.426 322.552 635.173 322.345 636.009 322.35C637.462 322.358 638.612 322.833 639.458 323.776C640.304 324.718 640.723 325.986 640.714 327.58C640.704 329.181 640.271 330.448 639.414 331.381C638.557 332.314 637.402 332.776 635.949 332.767ZM628.194 330.25C629.038 330.255 629.719 330.005 630.238 329.5C630.764 329.003 631.029 328.341 631.034 327.513C631.039 326.684 630.785 326.019 630.272 325.516C629.759 325.021 629.077 324.771 628.226 324.766C627.39 324.761 626.72 325 626.218 325.481C625.715 325.97 625.461 326.645 625.456 327.504C625.451 328.363 625.689 329.033 626.171 329.512C626.653 329.999 627.327 330.245 628.194 330.25ZM635.86 329.931C636.602 329.935 637.213 329.724 637.692 329.297C638.179 328.87 638.424 328.293 638.428 327.567C638.433 326.84 638.205 326.265 637.747 325.84C637.296 325.416 636.676 325.201 635.887 325.197C635.106 325.192 634.484 325.4 634.02 325.819C633.557 326.246 633.323 326.823 633.319 327.549C633.315 328.276 633.542 328.851 634.001 329.276C634.459 329.708 635.079 329.926 635.86 329.931Z" fill="#CCF6FF"/>
<path d="M625.709 406.899C624.9 406.69 624.231 406.295 623.703 405.715C623.182 405.137 622.833 404.441 622.656 403.629C622.032 404.388 621.313 404.908 620.498 405.189C619.681 405.479 618.834 405.51 617.957 405.283C616.505 404.908 615.478 404.118 614.877 402.914C614.283 401.711 614.197 400.293 614.619 398.659C615.042 397.017 615.809 395.812 616.919 395.041C618.028 394.279 619.304 394.084 620.749 394.458C621.634 394.686 622.368 395.126 622.95 395.777C623.533 396.428 623.904 397.226 624.063 398.171C624.61 397.553 625.251 397.118 625.986 396.864C626.726 396.62 627.502 396.602 628.311 396.811C629.718 397.175 630.716 397.917 631.307 399.038C631.897 400.159 631.993 401.491 631.595 403.034C631.195 404.585 630.466 405.708 629.407 406.403C628.349 407.097 627.116 407.263 625.709 406.899ZM618.804 402.561C619.621 402.772 620.343 402.696 620.969 402.333C621.6 401.98 622.02 401.403 622.226 400.601C622.433 399.799 622.349 399.091 621.975 398.478C621.599 397.873 620.998 397.463 620.174 397.25C619.365 397.041 618.657 397.108 618.052 397.452C617.445 397.804 617.034 398.396 616.82 399.228C616.605 400.06 616.673 400.767 617.023 401.35C617.371 401.94 617.965 402.344 618.804 402.561ZM626.315 404.127C627.034 404.312 627.677 404.257 628.246 403.96C628.822 403.665 629.201 403.166 629.383 402.462C629.564 401.759 629.484 401.145 629.144 400.621C628.81 400.099 628.262 399.74 627.498 399.542C626.741 399.347 626.087 399.396 625.536 399.689C624.982 399.99 624.614 400.492 624.433 401.195C624.252 401.899 624.331 402.513 624.672 403.036C625.011 403.568 625.559 403.931 626.315 404.127Z" fill="#CCF6FF"/>
<path d="M611.39 421.393C611.22 421.897 610.944 422.236 610.563 422.412C610.189 422.591 609.788 422.608 609.359 422.462C608.937 422.319 608.632 422.063 608.443 421.694C608.262 421.328 608.256 420.893 608.426 420.39C608.589 419.908 608.855 419.574 609.224 419.385C609.592 419.197 609.991 419.175 610.421 419.32C610.85 419.466 611.159 419.723 611.347 420.092C611.543 420.464 611.557 420.897 611.39 421.393Z" fill="#CCF6FF"/>
<path d="M611.161 438.315L618.723 442.519L615.158 450.961L612.892 450.003L615.536 443.741L611.962 441.72C612.073 442.624 611.935 443.532 611.549 444.446C610.917 445.944 609.948 446.903 608.641 447.326C607.332 447.756 605.868 447.629 604.249 446.944C602.651 446.268 601.572 445.269 601.012 443.946C600.458 442.626 600.52 441.163 601.198 439.558C601.805 438.119 602.716 437.096 603.93 436.49C605.149 435.894 606.444 435.84 607.815 436.327L606.744 438.864C605.939 438.642 605.237 438.667 604.639 438.94C604.047 439.216 603.6 439.714 603.296 440.433C602.956 441.239 602.979 441.987 603.366 442.677C603.75 443.374 604.439 443.933 605.432 444.353C606.389 444.757 607.249 444.829 608.013 444.566C608.784 444.307 609.353 443.742 609.721 442.871C609.921 442.396 610.027 441.966 610.037 441.58C610.054 441.197 609.962 440.734 609.759 440.19L611.161 438.315Z" fill="#CCF6FF"/>
<path d="M570.443 508.221C570.213 506.852 570.481 505.66 571.248 504.643C572.152 503.446 573.289 502.807 574.661 502.727C576.038 502.652 577.41 503.131 578.775 504.162C579.672 504.841 580.349 505.636 580.805 506.549C581.261 507.462 581.44 508.406 581.342 509.379C581.244 510.353 580.863 511.279 580.199 512.159C579.164 513.531 577.832 514.233 576.203 514.265C574.574 514.297 572.903 513.665 571.189 512.369L570.553 511.889C568.098 510.033 566.644 508.062 566.191 505.976C565.738 503.891 566.333 501.741 567.975 499.525L568.18 499.254L570.059 500.674L569.812 501.001C568.819 502.356 568.364 503.628 568.446 504.816C568.534 506.009 569.2 507.144 570.443 508.221ZM572.665 506.463C572.321 506.918 572.13 507.444 572.09 508.041C572.051 508.638 572.18 509.22 572.476 509.787L573.364 510.459C574.368 511.217 575.33 511.621 576.251 511.671C577.173 511.721 577.88 511.419 578.374 510.764C578.868 510.109 578.992 509.38 578.747 508.578C578.502 507.786 577.969 507.079 577.146 506.457C576.292 505.812 575.455 505.488 574.636 505.485C573.816 505.482 573.159 505.808 572.665 506.463Z" fill="#CCF6FF"/>
<path d="M519.348 561.006C519.459 559.623 520.011 558.532 521.003 557.734C522.172 556.794 523.431 556.452 524.78 556.71C526.135 556.974 527.347 557.773 528.419 559.107C529.123 559.984 529.585 560.921 529.804 561.918C530.023 562.915 529.966 563.873 529.633 564.793C529.3 565.713 528.704 566.519 527.846 567.209C526.507 568.287 525.044 568.642 523.456 568.275C521.869 567.908 520.402 566.886 519.057 565.211L518.558 564.59C516.631 562.19 515.703 559.923 515.774 557.791C515.844 555.658 516.947 553.718 519.081 551.971L519.345 551.758L520.82 553.594L520.501 553.851C519.207 554.923 518.454 556.045 518.244 557.217C518.038 558.395 518.406 559.659 519.348 561.006ZM521.932 559.845C521.487 560.202 521.173 560.666 520.989 561.235C520.805 561.804 520.787 562.4 520.936 563.022L521.634 563.89C522.421 564.871 523.255 565.498 524.137 565.772C525.018 566.046 525.778 565.925 526.417 565.411C527.056 564.897 527.354 564.22 527.312 563.382C527.269 562.554 526.924 561.739 526.279 560.934C525.609 560.1 524.876 559.581 524.082 559.378C523.288 559.175 522.571 559.33 521.932 559.845Z" fill="#CCF6FF"/>
<path d="M500.534 569.959C500.097 570.26 499.673 570.368 499.262 570.281C498.856 570.201 498.524 569.974 498.267 569.601C498.015 569.234 497.923 568.846 497.993 568.438C498.067 568.035 498.322 567.683 498.76 567.382C499.178 567.093 499.591 566.984 499.999 567.053C500.407 567.123 500.74 567.344 500.997 567.717C501.254 568.091 501.348 568.481 501.278 568.89C501.213 569.305 500.965 569.661 500.534 569.959Z" fill="#CCF6FF"/>
<path d="M490.239 583.38L493.784 591.272L485.879 595.908L484.636 593.784L490.499 590.346L488.844 586.589C488.392 587.379 487.738 588.025 486.882 588.527C485.481 589.349 484.13 589.539 482.83 589.096C481.523 588.658 480.426 587.68 479.539 586.163C478.663 584.666 478.396 583.219 478.737 581.824C479.083 580.434 480.007 579.299 481.51 578.418C482.858 577.628 484.2 577.353 485.535 577.593C486.868 577.844 487.938 578.575 488.746 579.786L486.371 581.179C485.858 580.519 485.28 580.12 484.638 579.981C483.999 579.848 483.343 579.979 482.669 580.374C481.914 580.817 481.485 581.43 481.383 582.215C481.274 583.003 481.492 583.863 482.036 584.793C482.561 585.69 483.208 586.262 483.977 586.508C484.75 586.762 485.544 586.649 486.359 586.171C486.804 585.91 487.146 585.628 487.385 585.325C487.628 585.029 487.831 584.602 487.993 584.045L490.239 583.38Z" fill="#CCF6FF"/>
<path d="M460.198 234.704C460.198 234.142 459.999 233.708 459.6 233.403C459.208 233.099 458.496 232.791 457.464 232.48C456.433 232.17 455.613 231.824 455.003 231.443C453.837 230.711 453.254 229.756 453.254 228.578C453.254 227.547 453.673 226.697 454.511 226.029C455.355 225.361 456.448 225.027 457.79 225.027C458.68 225.027 459.474 225.191 460.171 225.52C460.869 225.848 461.417 226.316 461.815 226.926C462.213 227.529 462.413 228.2 462.413 228.938H460.198C460.198 228.271 459.987 227.749 459.565 227.374C459.149 226.993 458.551 226.803 457.772 226.803C457.045 226.803 456.48 226.958 456.076 227.269C455.677 227.579 455.478 228.013 455.478 228.569C455.478 229.038 455.695 229.431 456.128 229.747C456.562 230.058 457.277 230.362 458.273 230.661C459.269 230.954 460.069 231.291 460.672 231.672C461.276 232.047 461.718 232.48 462 232.973C462.281 233.459 462.421 234.03 462.421 234.687C462.421 235.753 462.011 236.603 461.191 237.235C460.376 237.862 459.269 238.176 457.869 238.176C456.943 238.176 456.09 238.006 455.311 237.666C454.538 237.32 453.934 236.846 453.5 236.242C453.073 235.639 452.859 234.936 452.859 234.133H455.083C455.083 234.859 455.323 235.422 455.803 235.82C456.284 236.219 456.972 236.418 457.869 236.418C458.642 236.418 459.222 236.263 459.609 235.952C460.001 235.636 460.198 235.22 460.198 234.704ZM473.733 225.203V233.755C473.733 235.114 473.296 236.192 472.423 236.989C471.556 237.78 470.399 238.176 468.952 238.176C467.487 238.176 466.324 237.786 465.462 237.007C464.601 236.222 464.17 235.135 464.17 233.746V225.203H466.385V233.764C466.385 234.619 466.602 235.272 467.036 235.724C467.469 236.175 468.108 236.4 468.952 236.4C470.663 236.4 471.518 235.498 471.518 233.693V225.203H473.733ZM486.266 238H484.042L478.338 228.921V238H476.115V225.203H478.338L484.06 234.317V225.203H486.266V238Z" fill="white" fill-opacity="0.5"/>
<path d="M531.727 244.034L526.383 253.05L536.34 249.787L538.137 252.029L528.153 260.034L526.768 258.306L530.059 255.667L534.599 252.309L524.541 255.529L523.546 254.288L528.874 245.183L524.616 248.879L521.325 251.518L519.94 249.79L529.924 241.785L531.727 244.034ZM540.923 266.266C539.944 267.05 538.949 267.57 537.938 267.826C536.93 268.077 535.975 268.047 535.071 267.735C534.176 267.424 533.401 266.86 532.744 266.041C532.096 265.232 531.713 264.352 531.597 263.402C531.489 262.452 531.661 261.51 532.114 260.576C532.571 259.647 533.275 258.797 534.226 258.026L534.789 257.576C535.762 256.795 536.759 256.277 537.779 256.023C538.803 255.773 539.763 255.803 540.658 256.114C541.561 256.426 542.339 256.989 542.992 257.803C543.644 258.617 544.025 259.494 544.134 260.436C544.251 261.378 544.079 262.316 543.618 263.249C543.162 264.178 542.448 265.035 541.478 265.821L540.923 266.266ZM540.053 264.113C541.159 263.226 541.839 262.336 542.091 261.443C542.347 260.554 542.168 259.725 541.552 258.957C540.951 258.208 540.185 257.857 539.254 257.904C538.332 257.953 537.33 258.403 536.248 259.255L535.672 259.717C534.575 260.597 533.898 261.489 533.64 262.395C533.385 263.305 533.562 264.139 534.171 264.898C534.786 265.666 535.552 266.021 536.467 265.963C537.386 265.91 538.407 265.433 539.532 264.531L540.053 264.113ZM543.927 279.707L542.536 277.973L546.051 267.843L538.968 273.522L537.577 271.787L547.561 263.783L548.952 265.517L545.42 275.683L552.531 269.981L553.911 271.703L543.927 279.707Z" fill="white" fill-opacity="0.5"/>
<path d="M559.824 315.875L560.481 311.939L549.628 310.127L549.991 307.951L560.845 309.764L561.496 305.862L563.265 306.158L561.593 316.171L559.824 315.875ZM559.773 327.067L551.338 325.659C549.997 325.435 549.006 324.827 548.364 323.835C547.726 322.849 547.527 321.642 547.765 320.215C548.006 318.77 548.582 317.687 549.493 316.966C550.409 316.246 551.552 316 552.922 316.229L561.348 317.636L560.983 319.82L552.54 318.41C551.696 318.269 551.016 318.376 550.499 318.729C549.983 319.082 549.655 319.675 549.516 320.507C549.234 322.195 549.984 323.187 551.764 323.485L560.138 324.883L559.773 327.067ZM551.162 335.627L552.027 330.443L548.144 329.795L547.132 335.854L545.381 335.562L546.759 327.309L559.381 329.417L558.013 337.609L556.244 337.314L557.246 331.315L553.761 330.733L552.895 335.917L551.162 335.627Z" fill="white" fill-opacity="0.5"/>
<path d="M519.635 371.948L522.409 381.38L520.46 382.414L517.073 369.725L518.953 368.728L525.48 375.842L523.301 366.422L525.188 365.422L533.792 375.344L531.843 376.377L525.583 368.813L527.929 378.453L526.283 379.325L519.635 371.948ZM509.097 380.421L513.74 377.959L511.895 374.48L506.468 377.358L505.636 375.79L513.028 371.87L519.023 383.175L511.685 387.067L510.845 385.483L516.219 382.633L514.563 379.512L509.92 381.974L509.097 380.421ZM504.036 376.638L510.032 387.944L506.693 389.714C505.694 390.244 504.69 390.491 503.683 390.455C502.67 390.421 501.735 390.108 500.877 389.515C500.019 388.923 499.309 388.098 498.749 387.042L498.449 386.475C497.881 385.404 497.596 384.348 497.595 383.307C497.588 382.269 497.864 381.32 498.423 380.46C498.976 379.603 499.763 378.904 500.783 378.363L504.036 376.638ZM507.227 387.401L502.904 379.248L501.622 379.928C500.592 380.474 499.973 381.214 499.765 382.146C499.554 383.087 499.763 384.163 500.392 385.375L500.726 386.004C501.376 387.231 502.14 388.026 503.016 388.391C503.893 388.755 504.838 388.668 505.853 388.13L507.227 387.401Z" fill="white" fill-opacity="0.5"/>
<path d="M449.539 386.409L453.106 388.197L458.035 378.358L460.007 379.346L455.079 389.185L458.615 390.956L457.812 392.559L448.736 388.013L449.539 386.409ZM443.874 371.265L445.854 372.257L443.308 377.341L448.423 379.903L450.97 374.819L452.958 375.815L447.227 387.257L445.239 386.261L447.624 381.499L442.508 378.936L440.123 383.698L438.143 382.706L443.874 371.265ZM427.416 377.333L431.246 369.687C431.855 368.472 432.728 367.703 433.866 367.382C434.995 367.063 436.207 367.228 437.501 367.876C438.811 368.532 439.676 369.401 440.097 370.484C440.516 371.571 440.414 372.736 439.792 373.978L435.966 381.616L433.986 380.624L437.82 372.97C438.203 372.205 438.302 371.524 438.116 370.926C437.93 370.329 437.46 369.841 436.706 369.463C435.176 368.697 434.007 369.12 433.199 370.734L429.396 378.325L427.416 377.333Z" fill="white" fill-opacity="0.5"/>
<path d="M402.148 334.369L402.971 339.453L408.324 338.587L408.679 340.782L396.046 342.826L394.748 334.8L396.518 334.514L397.461 340.344L401.218 339.737L400.395 334.652L402.148 334.369ZM401.48 327.158L401.876 329.605L406.743 328.818L407.098 331.013L394.466 333.056L393.747 328.614C393.511 327.157 393.656 325.979 394.181 325.081C394.707 324.182 395.588 323.633 396.826 323.433C397.671 323.296 398.413 323.387 399.052 323.705C399.684 324.018 400.212 324.514 400.637 325.194L405.444 321.504L405.557 321.486L405.938 323.837L401.48 327.158ZM400.115 329.89L399.75 327.634C399.63 326.894 399.351 326.345 398.914 325.989C398.47 325.633 397.925 325.508 397.277 325.612C396.6 325.722 396.108 326 395.801 326.448C395.492 326.89 395.394 327.493 395.506 328.258L395.881 330.575L400.115 329.89ZM404.93 317.608L405.283 319.794L392.651 321.838L392.297 319.652L404.93 317.608Z" fill="white" fill-opacity="0.5"/>
<path d="M410.645 274.446C410.212 274.088 409.751 273.965 409.262 274.078C408.777 274.186 408.086 274.539 407.189 275.135C406.293 275.732 405.504 276.144 404.822 276.371C403.514 276.802 402.407 276.643 401.499 275.892C400.705 275.235 400.317 274.371 400.336 273.299C400.359 272.223 400.798 271.168 401.654 270.134C402.221 269.448 402.854 268.941 403.551 268.613C404.248 268.285 404.959 268.161 405.682 268.243C406.401 268.32 407.045 268.594 407.614 269.065L406.202 270.772C405.688 270.346 405.151 270.176 404.593 270.262C404.035 270.34 403.507 270.679 403.01 271.28C402.547 271.839 402.307 272.374 402.288 272.884C402.274 273.389 402.481 273.818 402.91 274.173C403.271 274.472 403.712 274.555 404.232 274.423C404.747 274.287 405.438 273.93 406.303 273.353C407.164 272.772 407.933 272.37 408.611 272.148C409.285 271.922 409.901 271.858 410.459 271.955C411.013 272.048 411.543 272.304 412.049 272.722C412.871 273.401 413.264 274.259 413.229 275.294C413.193 276.322 412.728 277.375 411.836 278.454C411.246 279.167 410.571 279.716 409.813 280.1C409.053 280.475 408.303 280.638 407.562 280.587C406.824 280.532 406.146 280.249 405.527 279.737L406.945 278.024C407.504 278.487 408.091 278.66 408.704 278.544C409.318 278.428 409.91 278.024 410.481 277.334C410.974 276.738 411.224 276.192 411.231 275.696C411.238 275.192 411.042 274.775 410.645 274.446ZM418.115 265.912L414.956 269.731L416.591 272.429L415.117 274.211L408.338 262.329L409.609 260.792L422.557 265.217L421.078 267.005L418.115 265.912ZM413.972 268.108L416.336 265.25L411.063 263.295L413.972 268.108ZM420.228 250.767L417.685 253.842L426.164 260.855L424.758 262.555L416.279 255.542L413.758 258.589L412.377 257.446L418.847 249.624L420.228 250.767Z" fill="white" fill-opacity="0.5"/>
<path d="M436.799 51.7977L435.24 51.0646L437.122 47.0622L433.095 45.1686L431.213 49.171L429.648 48.4351L433.883 39.428L435.448 40.1639L433.686 43.9128L437.713 45.8064L439.476 42.0575L441.034 42.7906L436.799 51.7977ZM443.649 49.2319L447.728 45.9378L449.46 46.7523L443.765 51.0241L442.206 54.3399L440.635 53.6011L442.194 50.2853L441.845 43.1716L443.583 43.989L443.649 49.2319ZM446.202 56.219L450.438 47.2119L453.524 48.6634C454.543 49.1423 455.222 49.711 455.562 50.3695C455.903 51.0279 455.882 51.7613 455.502 52.5697C455.308 52.9821 455.023 53.3009 454.645 53.5261C454.267 53.7513 453.821 53.8538 453.307 53.8336C453.731 54.1944 453.989 54.6204 454.081 55.1115C454.178 55.6005 454.106 56.1007 453.866 56.6121C453.469 57.4575 452.891 57.9791 452.133 58.1768C451.38 58.3764 450.498 58.2386 449.487 57.7635L446.202 56.219ZM449.679 52.8906L448.355 55.7053L450.093 56.5227C450.584 56.7534 451.025 56.8121 451.416 56.6987C451.806 56.5853 452.103 56.3121 452.307 55.8791C452.747 54.9429 452.494 54.2395 451.547 53.769L449.679 52.8906ZM450.22 51.7399L451.754 52.4613C452.24 52.6901 452.671 52.7593 453.046 52.6687C453.427 52.5759 453.713 52.3274 453.903 51.9232C454.112 51.4778 454.136 51.096 453.973 50.7779C453.814 50.4616 453.467 50.1774 452.931 49.9253L451.409 49.2098L450.22 51.7399ZM459.136 58.0629L457.392 57.2426L455.76 60.713L454.195 59.9771L458.43 50.97L461.597 52.4593C462.637 52.948 463.329 53.5582 463.675 54.2899C464.021 55.0216 463.986 55.8287 463.572 56.7112C463.288 57.3134 462.904 57.7497 462.42 58.0203C461.941 58.2888 461.39 58.4101 460.768 58.3843L461.025 63.0905L460.987 63.171L459.311 62.3827L459.136 58.0629ZM457.982 55.9868L459.591 56.7431C460.119 56.9913 460.593 57.0532 461.014 56.9289C461.437 56.8005 461.757 56.5053 461.974 56.0434C462.201 55.5609 462.239 55.1227 462.086 54.7288C461.938 54.3369 461.594 54.0088 461.054 53.7446L459.402 52.9679L457.982 55.9868ZM463.753 64.4712L462.194 63.7382L466.429 54.7311L467.988 55.4641L463.753 64.4712ZM465.677 65.3758L469.912 56.3687L472.572 57.6195C473.368 57.9937 473.99 58.5027 474.437 59.1463C474.889 59.7918 475.131 60.5199 475.163 61.3305C475.195 62.1412 475.013 62.9671 474.617 63.8085L474.405 64.2601C474.003 65.1138 473.479 65.7839 472.832 66.2704C472.19 66.7589 471.471 67.0301 470.675 67.0839C469.883 67.1397 469.081 66.9766 468.269 66.5946L465.677 65.3758ZM470.883 58.3666L467.829 64.8621L468.85 65.3421C469.671 65.728 470.42 65.768 471.097 65.4621C471.781 65.1541 472.353 64.5216 472.813 63.5645L473.049 63.0635C473.508 62.086 473.647 61.2397 473.464 60.5244C473.282 59.8092 472.787 59.2615 471.978 58.8814L470.883 58.3666Z" fill="#FF0000"/>
<path d="M143.701 89.4366L141.193 91.2648L146.234 98.1809L144.848 99.1916L139.806 92.2755L137.32 94.0875L136.499 92.9606L142.879 88.3097L143.701 89.4366ZM151.278 94.5045L149.886 95.5192L144.023 87.4762L145.415 86.4615L151.278 94.5045ZM148.945 83.8884L155.759 88.362L153.579 80.5099L155.386 79.1932L161.249 87.2362L159.857 88.2509L157.924 85.5994L155.477 81.9523L157.619 89.8818L156.619 90.6106L149.736 86.1456L152.455 89.5859L154.388 92.2374L152.996 93.2522L147.133 85.2091L148.945 83.8884ZM164.989 79.0108L161.686 81.4188L163.49 83.8935L167.351 81.0788L168.165 82.1947L162.906 86.0282L157.043 77.9851L162.263 74.1798L163.085 75.3068L159.262 78.0933L160.881 80.3139L164.184 77.9059L164.989 79.0108Z" fill="#FF0000"/>
<g filter="url(#filter4_d)">
<path d="M353.32 114.909L356.25 104.357C357.845 106.625 363.767 113.864 363.767 113.864L367.191 103.203" stroke="#F9F9F9" stroke-width="2"/>
</g>
<g filter="url(#filter5_d)">
<path d="M320.456 116.24C320.456 115.541 322.16 103.304 322.16 103.304C324.213 103.276 329.037 102.933 329.456 104.179" stroke="#F9F9F9" stroke-width="2"/>
</g>
<g filter="url(#filter6_d)">
<path d="M333.456 115.24L335.221 103.24H349.456L333.456 115.24Z" stroke="#F9F9F9" stroke-width="2"/>
</g>
<g filter="url(#filter7_d)">
<path d="M370.456 115.24L372.441 103.24H388.456L370.456 115.24Z" stroke="#F9F9F9" stroke-width="2"/>
</g>
<g filter="url(#filter8_d)">
<path d="M295.456 95.2402C266.866 106.544 262.456 115.24 262.456 115.24H287.678" stroke="#F9F9F9" stroke-width="2"/>
</g>
<g filter="url(#filter9_d)">
<path d="M299.537 94.2402L297.355 105.712M295.456 116.24L297.355 105.712M297.355 105.712C302.152 105.712 311.049 104.646 312.681 106.745C314.423 108.986 312.681 115.297 312.681 116.24" stroke="#F9F9F9" stroke-width="2"/>
</g>
<g filter="url(#filter10_d)">
<path d="M406.456 103.896C406.456 103.896 394.693 103.574 394.611 104.116C394.475 105.01 402.866 114.625 399.89 114.625C398.244 114.625 388.277 114.625 388.277 114.625" stroke="#F9F9F9" stroke-width="2"/>
</g>
<circle cx="333.456" cy="501.24" r="33.5" fill="url(#paint32_linear)" stroke="#BCBCBC"/>
<rect x="314.956" y="45.7402" width="38" height="3" fill="#EFEFEF" stroke="white"/>
<defs>
<filter id="filter0_dd" x="64.6299" y="126.24" width="553.068" height="411.802" filterUnits="userSpaceOnUse" color-interpolation-filters="sRGB">
<feFlood flood-opacity="0" result="BackgroundImageFix"/>
<feColorMatrix in="SourceAlpha" type="matrix" values="0 0 0 0 0 0 0 0 0 0 0 0 0 0 0 0 0 0 127 0"/>
<feOffset dx="10" dy="10"/>
<feGaussianBlur stdDeviation="30"/>
<feColorMatrix type="matrix" values="0 0 0 0 2.38419e-07 0 0 0 0 0.654545 0 0 0 0 1 0 0 0 0.6 0"/>
<feBlend mode="normal" in2="BackgroundImageFix" result="effect1_dropShadow"/>
<feColorMatrix in="SourceAlpha" type="matrix" values="0 0 0 0 0 0 0 0 0 0 0 0 0 0 0 0 0 0 127 0"/>
<feOffset dy="4"/>
<feGaussianBlur stdDeviation="30"/>
<feColorMatrix type="matrix" values="0 0 0 0 0.420834 0 0 0 0 0.89556 0 0 0 0 1 0 0 0 0.6 0"/>
<feBlend mode="normal" in2="effect1_dropShadow" result="effect2_dropShadow"/>
<feBlend mode="normal" in="SourceGraphic" in2="effect2_dropShadow" result="shape"/>
</filter>
<filter id="filter1_d" x="232" y="411" width="195" height="195" filterUnits="userSpaceOnUse" color-interpolation-filters="sRGB">
<feFlood flood-opacity="0" result="BackgroundImageFix"/>
<feColorMatrix in="SourceAlpha" type="matrix" values="0 0 0 0 0 0 0 0 0 0 0 0 0 0 0 0 0 0 127 0"/>
<feOffset dy="2"/>
<feGaussianBlur stdDeviation="5"/>
<feColorMatrix type="matrix" values="0 0 0 0 0 0 0 0 0 0 0 0 0 0 0 0 0 0 1 0"/>
<feBlend mode="normal" in2="BackgroundImageFix" result="effect1_dropShadow"/>
<feBlend mode="normal" in="SourceGraphic" in2="effect1_dropShadow" result="shape"/>
</filter>
<filter id="filter2_i" x="492.456" y="488.24" width="28" height="30" filterUnits="userSpaceOnUse" color-interpolation-filters="sRGB">
<feFlood flood-opacity="0" result="BackgroundImageFix"/>
<feBlend mode="normal" in="SourceGraphic" in2="BackgroundImageFix" result="shape"/>
<feColorMatrix in="SourceAlpha" type="matrix" values="0 0 0 0 0 0 0 0 0 0 0 0 0 0 0 0 0 0 127 0" result="hardAlpha"/>
<feOffset dx="2" dy="4"/>
<feGaussianBlur stdDeviation="2"/>
<feComposite in2="hardAlpha" operator="arithmetic" k2="-1" k3="1"/>
<feColorMatrix type="matrix" values="0 0 0 0 0.690764 0 0 0 0 0.817921 0 0 0 0 0.845833 0 0 0 1 0"/>
<feBlend mode="normal" in2="shape" result="effect1_innerShadow"/>
</filter>
<filter id="filter3_i" x="146.456" y="488.24" width="28" height="30" filterUnits="userSpaceOnUse" color-interpolation-filters="sRGB">
<feFlood flood-opacity="0" result="BackgroundImageFix"/>
<feBlend mode="normal" in="SourceGraphic" in2="BackgroundImageFix" result="shape"/>
<feColorMatrix in="SourceAlpha" type="matrix" values="0 0 0 0 0 0 0 0 0 0 0 0 0 0 0 0 0 0 127 0" result="hardAlpha"/>
<feOffset dx="2" dy="4"/>
<feGaussianBlur stdDeviation="2"/>
<feComposite in2="hardAlpha" operator="arithmetic" k2="-1" k3="1"/>
<feColorMatrix type="matrix" values="0 0 0 0 0.690764 0 0 0 0 0.817921 0 0 0 0 0.845833 0 0 0 1 0"/>
<feBlend mode="normal" in2="shape" result="effect1_innerShadow"/>
</filter>
<filter id="filter4_d" x="322.356" y="72.0527" width="75.7869" height="73.8661" filterUnits="userSpaceOnUse" color-interpolation-filters="sRGB">
<feFlood flood-opacity="0" result="BackgroundImageFix"/>
<feColorMatrix in="SourceAlpha" type="matrix" values="0 0 0 0 0 0 0 0 0 0 0 0 0 0 0 0 0 0 127 0"/>
<feOffset/>
<feGaussianBlur stdDeviation="15"/>
<feColorMatrix type="matrix" values="0 0 0 0 1 0 0 0 0 1 0 0 0 0 1 0 0 0 0.5 0"/>
<feBlend mode="normal" in2="BackgroundImageFix" result="effect1_dropShadow"/>
<feBlend mode="normal" in="SourceGraphic" in2="effect1_dropShadow" result="shape"/>
</filter>
<filter id="filter5_d" x="289.456" y="72.2407" width="70.948" height="74.0023" filterUnits="userSpaceOnUse" color-interpolation-filters="sRGB">
<feFlood flood-opacity="0" result="BackgroundImageFix"/>
<feColorMatrix in="SourceAlpha" type="matrix" values="0 0 0 0 0 0 0 0 0 0 0 0 0 0 0 0 0 0 127 0"/>
<feOffset/>
<feGaussianBlur stdDeviation="15"/>
<feColorMatrix type="matrix" values="0 0 0 0 1 0 0 0 0 1 0 0 0 0 1 0 0 0 0.5 0"/>
<feBlend mode="normal" in2="BackgroundImageFix" result="effect1_dropShadow"/>
<feBlend mode="normal" in="SourceGraphic" in2="effect1_dropShadow" result="shape"/>
</filter>
<filter id="filter6_d" x="302.113" y="72.2402" width="80.3428" height="75.2571" filterUnits="userSpaceOnUse" color-interpolation-filters="sRGB">
<feFlood flood-opacity="0" result="BackgroundImageFix"/>
<feColorMatrix in="SourceAlpha" type="matrix" values="0 0 0 0 0 0 0 0 0 0 0 0 0 0 0 0 0 0 127 0"/>
<feOffset/>
<feGaussianBlur stdDeviation="15"/>
<feColorMatrix type="matrix" values="0 0 0 0 1 0 0 0 0 1 0 0 0 0 1 0 0 0 0.5 0"/>
<feBlend mode="normal" in2="BackgroundImageFix" result="effect1_dropShadow"/>
<feBlend mode="normal" in="SourceGraphic" in2="effect1_dropShadow" result="shape"/>
</filter>
<filter id="filter7_d" x="339.093" y="72.2402" width="82.6656" height="75.1104" filterUnits="userSpaceOnUse" color-interpolation-filters="sRGB">
<feFlood flood-opacity="0" result="BackgroundImageFix"/>
<feColorMatrix in="SourceAlpha" type="matrix" values="0 0 0 0 0 0 0 0 0 0 0 0 0 0 0 0 0 0 127 0"/>
<feOffset/>
<feGaussianBlur stdDeviation="15"/>
<feColorMatrix type="matrix" values="0 0 0 0 1 0 0 0 0 1 0 0 0 0 1 0 0 0 0.5 0"/>
<feBlend mode="normal" in2="BackgroundImageFix" result="effect1_dropShadow"/>
<feBlend mode="normal" in="SourceGraphic" in2="effect1_dropShadow" result="shape"/>
</filter>
<filter id="filter8_d" x="230.827" y="64.3101" width="94.9961" height="81.9299" filterUnits="userSpaceOnUse" color-interpolation-filters="sRGB">
<feFlood flood-opacity="0" result="BackgroundImageFix"/>
<feColorMatrix in="SourceAlpha" type="matrix" values="0 0 0 0 0 0 0 0 0 0 0 0 0 0 0 0 0 0 127 0"/>
<feOffset/>
<feGaussianBlur stdDeviation="15"/>
<feColorMatrix type="matrix" values="0 0 0 0 1 0 0 0 0 1 0 0 0 0 1 0 0 0 0.5 0"/>
<feBlend mode="normal" in2="BackgroundImageFix" result="effect1_dropShadow"/>
<feBlend mode="normal" in="SourceGraphic" in2="effect1_dropShadow" result="shape"/>
</filter>
<filter id="filter9_d" x="264.472" y="64.0532" width="79.9841" height="82.3644" filterUnits="userSpaceOnUse" color-interpolation-filters="sRGB">
<feFlood flood-opacity="0" result="BackgroundImageFix"/>
<feColorMatrix in="SourceAlpha" type="matrix" values="0 0 0 0 0 0 0 0 0 0 0 0 0 0 0 0 0 0 127 0"/>
<feOffset/>
<feGaussianBlur stdDeviation="15"/>
<feColorMatrix type="matrix" values="0 0 0 0 1 0 0 0 0 1 0 0 0 0 1 0 0 0 0.5 0"/>
<feBlend mode="normal" in2="BackgroundImageFix" result="effect1_dropShadow"/>
<feBlend mode="normal" in="SourceGraphic" in2="effect1_dropShadow" result="shape"/>
</filter>
<filter id="filter10_d" x="358.257" y="72.8071" width="78.2466" height="72.8123" filterUnits="userSpaceOnUse" color-interpolation-filters="sRGB">
<feFlood flood-opacity="0" result="BackgroundImageFix"/>
<feColorMatrix in="SourceAlpha" type="matrix" values="0 0 0 0 0 0 0 0 0 0 0 0 0 0 0 0 0 0 127 0"/>
<feOffset/>
<feGaussianBlur stdDeviation="15"/>
<feColorMatrix type="matrix" values="0 0 0 0 1 0 0 0 0 1 0 0 0 0 1 0 0 0 0.5 0"/>
<feBlend mode="normal" in2="BackgroundImageFix" result="effect1_dropShadow"/>
<feBlend mode="normal" in="SourceGraphic" in2="effect1_dropShadow" result="shape"/>
</filter>
<linearGradient id="paint0_linear" x1="83.9555" y1="885.24" x2="250.956" y2="111.24" gradientUnits="userSpaceOnUse">
<stop stop-color="#101010"/>
<stop offset="1" stop-color="#101010"/>
</linearGradient>
<linearGradient id="paint1_linear" x1="-291.5" y1="976.5" x2="565.5" y2="105" gradientUnits="userSpaceOnUse">
<stop stop-color="#225D76" stop-opacity="0.01"/>
<stop offset="1" stop-color="#0B0B0B"/>
</linearGradient>
<linearGradient id="paint2_linear" x1="332.206" y1="66.7402" x2="332.206" y2="110.74" gradientUnits="userSpaceOnUse">
<stop stop-color="#CCF6FF"/>
<stop offset="1" stop-color="#CCF6FF" stop-opacity="0"/>
<stop offset="1" stop-color="#F5F5F5"/>
</linearGradient>
<linearGradient id="paint3_linear" x1="332.206" y1="66.7402" x2="332.206" y2="110.74" gradientUnits="userSpaceOnUse">
<stop stop-color="#313131"/>
<stop offset="1" stop-opacity="0"/>
</linearGradient>
<linearGradient id="paint4_linear" x1="560.87" y1="197.798" x2="522.864" y2="219.969" gradientUnits="userSpaceOnUse">
<stop stop-color="#CCF6FF"/>
<stop offset="1" stop-color="#CCF6FF" stop-opacity="0"/>
<stop offset="1" stop-color="#F5F5F5"/>
</linearGradient>
<linearGradient id="paint5_linear" x1="560.87" y1="197.798" x2="522.864" y2="219.969" gradientUnits="userSpaceOnUse">
<stop stop-color="#313131"/>
<stop offset="1" stop-opacity="0"/>
</linearGradient>
<linearGradient id="paint6_linear" x1="559.891" y1="462.979" x2="523.321" y2="438.512" gradientUnits="userSpaceOnUse">
<stop stop-color="#CCF6FF"/>
<stop offset="1" stop-color="#CCF6FF" stop-opacity="0"/>
<stop offset="1" stop-color="#F5F5F5"/>
</linearGradient>
<linearGradient id="paint7_linear" x1="559.891" y1="462.979" x2="523.321" y2="438.512" gradientUnits="userSpaceOnUse">
<stop stop-color="#313131"/>
<stop offset="1" stop-opacity="0"/>
</linearGradient>
<linearGradient id="paint8_linear" x1="464.653" y1="558.446" x2="441.951" y2="520.755" gradientUnits="userSpaceOnUse">
<stop stop-color="#CCF6FF"/>
<stop offset="1" stop-color="#CCF6FF" stop-opacity="0"/>
<stop offset="1" stop-color="#F5F5F5"/>
</linearGradient>
<linearGradient id="paint9_linear" x1="464.653" y1="558.446" x2="441.951" y2="520.755" gradientUnits="userSpaceOnUse">
<stop stop-color="#313131"/>
<stop offset="1" stop-opacity="0"/>
</linearGradient>
<linearGradient id="paint10_linear" x1="199.048" y1="556.77" x2="220.916" y2="518.589" gradientUnits="userSpaceOnUse">
<stop stop-color="#CCF6FF"/>
<stop offset="1" stop-color="#CCF6FF" stop-opacity="0"/>
<stop offset="1" stop-color="#F5F5F5"/>
</linearGradient>
<linearGradient id="paint11_linear" x1="199.048" y1="556.77" x2="220.916" y2="518.589" gradientUnits="userSpaceOnUse">
<stop stop-color="#313131"/>
<stop offset="1" stop-opacity="0"/>
</linearGradient>
<linearGradient id="paint12_linear" x1="107.785" y1="463.23" x2="144.453" y2="438.909" gradientUnits="userSpaceOnUse">
<stop stop-color="#CCF6FF"/>
<stop offset="1" stop-color="#CCF6FF" stop-opacity="0"/>
<stop offset="1" stop-color="#F5F5F5"/>
</linearGradient>
<linearGradient id="paint13_linear" x1="107.785" y1="463.23" x2="144.453" y2="438.909" gradientUnits="userSpaceOnUse">
<stop stop-color="#313131"/>
<stop offset="1" stop-opacity="0"/>
</linearGradient>
<linearGradient id="paint14_linear" x1="106.376" y1="197.476" x2="142.761" y2="222.217" gradientUnits="userSpaceOnUse">
<stop stop-color="#CCF6FF"/>
<stop offset="1" stop-color="#CCF6FF" stop-opacity="0"/>
<stop offset="1" stop-color="#F5F5F5"/>
</linearGradient>
<linearGradient id="paint15_linear" x1="106.376" y1="197.476" x2="142.761" y2="222.217" gradientUnits="userSpaceOnUse">
<stop stop-color="#313131"/>
<stop offset="1" stop-opacity="0"/>
</linearGradient>
<linearGradient id="paint16_linear" x1="386.5" y1="194" x2="633.5" y2="428" gradientUnits="userSpaceOnUse">
<stop stop-color="white"/>
<stop offset="1" stop-color="white" stop-opacity="0"/>
</linearGradient>
<linearGradient id="paint17_linear" x1="393" y1="220.5" x2="676.5" y2="379.5" gradientUnits="userSpaceOnUse">
<stop stop-color="white"/>
<stop offset="1" stop-color="white" stop-opacity="0"/>
</linearGradient>
<linearGradient id="paint18_linear" x1="237.5" y1="199.5" x2="-99.5" y2="447" gradientUnits="userSpaceOnUse">
<stop stop-color="#CCF6FF"/>
<stop offset="1" stop-color="#CCF6FF" stop-opacity="0"/>
</linearGradient>
<linearGradient id="paint19_linear" x1="529.706" y1="182.24" x2="561" y2="247" gradientUnits="userSpaceOnUse">
<stop stop-color="#F9F9F9"/>
<stop offset="1" stop-color="#C2C2C2" stop-opacity="0"/>
</linearGradient>
<linearGradient id="paint20_linear" x1="419.206" y1="436.74" x2="419.206" y2="372.24" gradientUnits="userSpaceOnUse">
<stop stop-color="#F9F9F9"/>
<stop offset="1" stop-color="#C2C2C2" stop-opacity="0"/>
</linearGradient>
<linearGradient id="paint21_linear" x1="340.5" y1="440" x2="358.714" y2="600.535" gradientUnits="userSpaceOnUse">
<stop stop-color="#363636" stop-opacity="0.68"/>
<stop offset="1" stop-color="#363636" stop-opacity="0"/>
</linearGradient>
<linearGradient id="paint22_linear" x1="530.206" y1="436.74" x2="530.206" y2="372.24" gradientUnits="userSpaceOnUse">
<stop stop-color="#F9F9F9"/>
<stop offset="1" stop-color="#C2C2C2" stop-opacity="0"/>
</linearGradient>
<linearGradient id="paint23_linear" x1="144.068" y1="180.326" x2="94.5" y2="272" gradientUnits="userSpaceOnUse">
<stop stop-color="#CCF6FF"/>
<stop offset="1" stop-color="#CCF6FF" stop-opacity="0"/>
</linearGradient>
<linearGradient id="paint24_linear" x1="134.206" y1="436.74" x2="134" y2="357.5" gradientUnits="userSpaceOnUse">
<stop stop-color="#CCF6FF"/>
<stop offset="1" stop-color="#CCF6FF" stop-opacity="0"/>
</linearGradient>
<linearGradient id="paint25_linear" x1="245.206" y1="436.74" x2="283.5" y2="333.5" gradientUnits="userSpaceOnUse">
<stop stop-color="#CCF6FF"/>
<stop offset="1" stop-color="#CCF6FF" stop-opacity="0"/>
</linearGradient>
<linearGradient id="paint26_linear" x1="427.456" y1="487.24" x2="427.456" y2="515.74" gradientUnits="userSpaceOnUse">
<stop stop-color="#C4C4C4"/>
<stop offset="1" stop-color="#8A8A8A"/>
</linearGradient>
<linearGradient id="paint27_linear" x1="190.456" y1="209.24" x2="39" y2="430.5" gradientUnits="userSpaceOnUse">
<stop stop-color="#CCF6FF"/>
<stop offset="1" stop-color="#CCF6FF" stop-opacity="0"/>
</linearGradient>
<linearGradient id="paint28_linear" x1="271.5" y1="203" x2="54" y2="393" gradientUnits="userSpaceOnUse">
<stop stop-color="#CCF6FF"/>
<stop offset="1" stop-color="#CCF6FF" stop-opacity="0"/>
</linearGradient>
<linearGradient id="paint29_linear" x1="494.456" y1="488.74" x2="522.456" y2="518.24" gradientUnits="userSpaceOnUse">
<stop stop-color="#C4C4C4"/>
<stop offset="1" stop-color="#828282"/>
</linearGradient>
<linearGradient id="paint30_linear" x1="237.456" y1="487.24" x2="237.456" y2="515.74" gradientUnits="userSpaceOnUse">
<stop stop-color="#C4C4C4"/>
<stop offset="1" stop-color="#8A8A8A"/>
</linearGradient>
<linearGradient id="paint31_linear" x1="6" y1="4.5" x2="34" y2="34" gradientUnits="userSpaceOnUse">
<stop stop-color="#C4C4C4"/>
<stop offset="1" stop-color="#828282"/>
</linearGradient>
<linearGradient id="paint32_linear" x1="311.456" y1="476.24" x2="367.456" y2="535.24" gradientUnits="userSpaceOnUse">
<stop stop-color="#C4C4C4"/>
<stop offset="1" stop-color="#828282"/>
</linearGradient>
</defs>
</svg>
